<svg width="163" height="60" viewBox="0 0 163 60" fill="none" xmlns="http://www.w3.org/2000/svg">
<g clip-path="url(#clip0_3503_69)">
<mask id="mask0_3503_69" style="mask-type:luminance" maskUnits="userSpaceOnUse" x="0" y="10" width="40" height="40">
<path d="M19.9936 46.4371C15.1168 46.4371 10.6496 44.6936 7.2064 41.8004L19.9936 34.5104L32.7808 41.8004C29.3376 44.6936 24.8704 46.4371 19.9936 46.4371ZM19.8144 40.4359H18.2144V42.0152H19.8144V40.4359ZM20.1728 40.4359V42.0152H21.7728V40.4359H20.1728ZM20.1728 40.0821H21.7728V38.5028H20.1728V40.0821ZM19.8144 40.0821V38.5028H18.2144V40.0821H19.8144ZM6.9504 38.4523V34.3335L5.632 35.0916V39.2104L6.9504 38.4523ZM8.2816 33.5755V37.6943L9.6 36.9362V32.8174L8.2816 33.5755ZM10.9312 32.072V36.1908L12.2496 35.4327V31.314L10.9312 32.072ZM13.5808 29.0398V34.6747L20.0064 31.0107L21.9136 32.0973V22.2426V19.2988L12.2624 24.8073L9.7024 26.2603V31.2508L12.2624 29.7979L13.5808 29.0398ZM23.232 23.0006V32.868L26.5856 34.7757V24.9084L23.232 23.0006ZM27.904 25.6665V35.5212L29.2224 36.2792V26.4119L27.904 25.6665ZM30.5536 27.1699V37.0373L31.872 37.7953V31.832V27.928L30.5536 27.1699ZM33.216 34.0935V38.5407L34.368 39.1977V34.7505L33.216 34.0935ZM13.568 22.5332V17.0752L12.2496 17.8332V23.2912L13.568 22.5332ZM14.8992 16.3298V21.7877L16.2176 21.0297V15.5717L14.8992 16.3298ZM17.5488 14.8136V20.2716L18.8672 19.5136V14.0682L17.5488 14.8136ZM20.1856 13.3102V18.7682L23.232 17.0373V21.4845L25.9968 23.0638V10L20.1856 13.3102ZM19.9936 32.3121L5.7472 40.4359C2.3936 36.9867 0.3072 32.3373 0.2432 27.1952C0.0768 28.1933 0 29.2167 0 30.2527C0 41.156 8.96 49.9874 19.9936 49.9874C31.0272 49.9874 39.9872 41.1434 39.9872 30.2527C39.9872 29.2167 39.9104 28.1933 39.744 27.1952C39.6672 32.3373 37.5936 36.9867 34.24 40.4359L19.9936 32.3121Z" fill="white"/>
</mask>
<g mask="url(#mask0_3503_69)">
<path d="M40 10H0V50H40V10Z" fill="#DF2339"/>
</g>
</g>
<path d="M51.47 34.08V33.48C51.47 33.06 51.68 32.85 52.1 32.85H54.65C55.07 32.85 55.28 33.06 55.28 33.48V33.72C55.28 34.48 55.43 35 55.73 35.28C56.03 35.56 56.58 35.7 57.38 35.7H58.79C59.57 35.7 60.11 35.55 60.41 35.25C60.73 34.95 60.89 34.39 60.89 33.57V33.21C60.89 32.63 60.65 32.19 60.17 31.89C59.71 31.57 59.13 31.38 58.43 31.32C57.73 31.26 56.97 31.15 56.15 30.99C55.35 30.81 54.6 30.59 53.9 30.33C53.2 30.05 52.61 29.52 52.13 28.74C51.67 27.94 51.44 26.92 51.44 25.68V24.63C51.44 23.07 51.88 21.86 52.76 21C53.64 20.14 54.86 19.71 56.42 19.71H59.42C61 19.71 62.23 20.14 63.11 21C63.99 21.86 64.43 23.07 64.43 24.63V25.2C64.43 25.62 64.22 25.83 63.8 25.83H61.25C60.83 25.83 60.62 25.62 60.62 25.2V25.02C60.62 24.24 60.47 23.71 60.17 23.43C59.87 23.15 59.32 23.01 58.52 23.01H57.35C56.53 23.01 55.97 23.17 55.67 23.49C55.39 23.79 55.25 24.39 55.25 25.29V25.86C55.25 26.8 56.07 27.34 57.71 27.48C59.41 27.62 60.92 27.96 62.24 28.5C62.94 28.8 63.52 29.34 63.98 30.12C64.46 30.88 64.7 31.86 64.7 33.06V34.08C64.7 35.64 64.26 36.85 63.38 37.71C62.5 38.57 61.28 39 59.72 39H56.45C54.89 39 53.67 38.57 52.79 37.71C51.91 36.85 51.47 35.64 51.47 34.08ZM68.1519 27H66.9519C66.7119 27 66.5419 26.96 66.4419 26.88C66.3619 26.8 66.3219 26.64 66.3219 26.4V24.33C66.3219 23.91 66.5319 23.7 66.9519 23.7H68.1519C68.3719 23.7 68.4819 23.59 68.4819 23.37V20.52C68.4819 20.1 68.7019 19.89 69.1419 19.89H71.6619C72.0819 19.89 72.2919 20.1 72.2919 20.52V23.37C72.2919 23.59 72.4119 23.7 72.6519 23.7H74.9919C75.4119 23.7 75.6219 23.91 75.6219 24.33V26.4C75.6219 26.62 75.5719 26.78 75.4719 26.88C75.3919 26.96 75.2319 27 74.9919 27H72.6519C72.4119 27 72.2919 27.11 72.2919 27.33V33.96C72.2919 34.58 72.4319 35.03 72.7119 35.31C72.9919 35.57 73.4519 35.7 74.0919 35.7H75.2919C75.7119 35.7 75.9219 35.91 75.9219 36.33V38.4C75.9219 38.62 75.8719 38.78 75.7719 38.88C75.6919 38.96 75.5319 39 75.2919 39H73.4619C71.8819 39 70.6519 38.58 69.7719 37.74C68.9119 36.9 68.4819 35.7 68.4819 34.14V27.33C68.4819 27.11 68.3719 27 68.1519 27ZM89.678 39H83.048C81.468 39 80.248 38.58 79.388 37.74C78.528 36.9 78.098 35.69 78.098 34.11V28.59C78.098 27.01 78.528 25.8 79.388 24.96C80.248 24.12 81.468 23.7 83.048 23.7H85.418C86.998 23.7 88.218 24.12 89.078 24.96C89.938 25.8 90.368 27.01 90.368 28.59V32.4C90.368 32.82 90.158 33.03 89.738 33.03H82.208C81.968 33.03 81.848 33.14 81.848 33.36V34.02C81.848 34.64 81.978 35.09 82.238 35.37C82.518 35.63 82.978 35.76 83.618 35.76H89.678C90.098 35.76 90.308 35.98 90.308 36.42V38.4C90.308 38.62 90.258 38.78 90.158 38.88C90.078 38.96 89.918 39 89.678 39ZM82.208 30.48H86.288C86.508 30.48 86.618 30.37 86.618 30.15V28.71C86.618 28.07 86.488 27.62 86.228 27.36C85.968 27.1 85.518 26.97 84.878 26.97H83.618C82.978 26.97 82.528 27.1 82.268 27.36C82.008 27.62 81.878 28.07 81.878 28.71V30.15C81.878 30.37 81.988 30.48 82.208 30.48ZM104.502 39H97.8723C96.2923 39 95.0723 38.58 94.2123 37.74C93.3523 36.9 92.9223 35.69 92.9223 34.11V28.59C92.9223 27.01 93.3523 25.8 94.2123 24.96C95.0723 24.12 96.2923 23.7 97.8723 23.7H100.242C101.822 23.7 103.042 24.12 103.902 24.96C104.762 25.8 105.192 27.01 105.192 28.59V32.4C105.192 32.82 104.982 33.03 104.562 33.03H97.0323C96.7923 33.03 96.6723 33.14 96.6723 33.36V34.02C96.6723 34.64 96.8023 35.09 97.0623 35.37C97.3423 35.63 97.8023 35.76 98.4423 35.76H104.502C104.922 35.76 105.132 35.98 105.132 36.42V38.4C105.132 38.62 105.082 38.78 104.982 38.88C104.902 38.96 104.742 39 104.502 39ZM97.0323 30.48H101.112C101.332 30.48 101.442 30.37 101.442 30.15V28.71C101.442 28.07 101.312 27.62 101.052 27.36C100.792 27.1 100.342 26.97 99.7023 26.97H98.4423C97.8023 26.97 97.3523 27.1 97.0923 27.36C96.8323 27.62 96.7023 28.07 96.7023 28.71V30.15C96.7023 30.37 96.8123 30.48 97.0323 30.48ZM111.376 39H108.826C108.406 39 108.196 38.79 108.196 38.37V18.54C108.196 18.12 108.406 17.91 108.826 17.91H111.376C111.796 17.91 112.006 18.12 112.006 18.54V38.37C112.006 38.79 111.796 39 111.376 39ZM123.679 39H120.409C118.829 39 117.609 38.58 116.749 37.74C115.889 36.9 115.459 35.69 115.459 34.11V24.6C115.459 23.02 115.889 21.81 116.749 20.97C117.609 20.13 118.829 19.71 120.409 19.71H123.679C125.239 19.71 126.449 20.14 127.309 21C128.189 21.84 128.629 23.04 128.629 24.6V26.01C128.629 26.45 128.409 26.67 127.969 26.67H125.449C125.029 26.67 124.819 26.45 124.819 26.01V24.78C124.819 24.14 124.679 23.69 124.399 23.43C124.139 23.15 123.689 23.01 123.049 23.01H121.009C120.389 23.01 119.939 23.15 119.659 23.43C119.399 23.69 119.269 24.14 119.269 24.78V33.93C119.269 34.57 119.399 35.03 119.659 35.31C119.939 35.57 120.389 35.7 121.009 35.7H123.049C123.689 35.7 124.139 35.57 124.399 35.31C124.679 35.03 124.819 34.57 124.819 33.93V32.7C124.819 32.26 125.029 32.04 125.449 32.04H127.969C128.409 32.04 128.629 32.26 128.629 32.7V34.11C128.629 35.67 128.189 36.88 127.309 37.74C126.449 38.58 125.239 39 123.679 39ZM131.751 21.12V18.51C131.751 18.11 131.951 17.91 132.351 17.91H134.961C135.361 17.91 135.561 18.1 135.561 18.48V21.12C135.561 21.52 135.361 21.72 134.961 21.72H132.351C131.951 21.72 131.751 21.52 131.751 21.12ZM131.751 38.37V24.33C131.751 23.91 131.951 23.7 132.351 23.7H134.931C135.351 23.7 135.561 23.91 135.561 24.33V38.37C135.561 38.63 135.511 38.8 135.411 38.88C135.331 38.96 135.181 39 134.961 39H132.381C131.961 39 131.751 38.79 131.751 38.37ZM139.343 27H138.143C137.903 27 137.733 26.96 137.633 26.88C137.553 26.8 137.513 26.64 137.513 26.4V24.33C137.513 23.91 137.723 23.7 138.143 23.7H139.343C139.563 23.7 139.673 23.59 139.673 23.37V20.52C139.673 20.1 139.893 19.89 140.333 19.89H142.853C143.273 19.89 143.483 20.1 143.483 20.52V23.37C143.483 23.59 143.603 23.7 143.843 23.7H146.183C146.603 23.7 146.813 23.91 146.813 24.33V26.4C146.813 26.62 146.763 26.78 146.663 26.88C146.583 26.96 146.423 27 146.183 27H143.843C143.603 27 143.483 27.11 143.483 27.33V33.96C143.483 34.58 143.623 35.03 143.903 35.31C144.183 35.57 144.643 35.7 145.283 35.7H146.483C146.903 35.7 147.113 35.91 147.113 36.33V38.4C147.113 38.62 147.063 38.78 146.963 38.88C146.883 38.96 146.723 39 146.483 39H144.653C143.073 39 141.843 38.58 140.963 37.74C140.103 36.9 139.673 35.7 139.673 34.14V27.33C139.673 27.11 139.563 27 139.343 27ZM152.079 44.07H150.159C149.759 44.07 149.559 43.85 149.559 43.41V41.4C149.559 40.96 149.759 40.74 150.159 40.74H150.789C152.049 40.74 152.899 40.56 153.339 40.2C153.799 39.86 154.149 39.19 154.389 38.19H152.799C152.419 38.19 152.169 37.98 152.049 37.56L148.539 24.33C148.419 23.91 148.569 23.7 148.989 23.7H151.659C152.059 23.7 152.309 23.91 152.409 24.33L154.989 35.4H155.109L157.659 24.33C157.739 23.91 157.989 23.7 158.409 23.7H160.929C161.429 23.7 161.629 23.92 161.529 24.36L157.869 39C157.429 40.66 156.749 41.92 155.829 42.78C154.909 43.64 153.659 44.07 152.079 44.07Z" fill="#171717"/>
<defs>
<clipPath id="clip0_3503_69">
<rect width="40" height="40" fill="white" transform="translate(0 10)"/>
</clipPath>
</defs>
</svg>
