<svg width="65" height="65" viewBox="0 0 65 65" fill="none" xmlns="http://www.w3.org/2000/svg">
<path d="M26.3672 20.2383H28.5275V28.3713H38.5666V18.3322H24.334V12.1054H26.4943V15.2188H28.4005V12.1054H30.5608V16.2354H32.4669V10.1992H22.4278V18.3322H16.3281V28.3713H26.3672V20.2383ZM30.4337 20.2383H32.594V23.3517H34.5002V20.2383H36.6605V26.4651H30.4337V20.2383ZM24.4611 26.4651H18.2343V20.2383H20.3946V23.3517H22.3008V20.2383H24.4611V26.4651Z" fill="#DF2339"/>
<path d="M64.9988 49.7855C64.9988 44.9323 61.1741 40.9555 56.3803 40.7114L51.3708 34.4496C51.5274 34.4643 51.6858 34.4727 51.8462 34.4727H52.7993V24.4336H51.8463C49.4743 24.4336 47.4826 26.0881 46.9612 28.3033L45.1247 26.4668H41.6802V28.373H44.3353L46.8268 30.8645V42.6692H48.7329V34.2034L54.0787 40.8856C50.2485 41.6738 47.2909 44.8802 46.877 48.8324H35.5805C32.182 48.8324 29.4172 46.0676 29.4172 42.6692C29.4172 39.2708 32.182 36.5059 35.5805 36.5059H36.5335V30.5333H18.3615V36.5059H21.0802L16.8763 40.7098C12.0536 40.9225 8.19531 44.9113 8.19531 49.7855V50.7386H12.3537C12.8003 53.052 14.8394 54.8051 17.2813 54.8051C19.7232 54.8051 21.7623 53.052 22.209 50.7386H46.8268H47.7799H50.9851C51.4318 53.052 53.4709 54.8051 55.9128 54.8051C58.3547 54.8051 60.3938 53.052 60.8405 50.7386H64.9988V49.7855ZM20.2676 34.5998V32.4395H34.6274V34.5998H22.9863H20.2676ZM17.2813 52.8989C15.897 52.8989 14.7214 51.9904 14.3178 50.7386H20.2449C19.8413 51.9904 18.6657 52.8989 17.2813 52.8989ZM10.1645 48.8324C10.6321 45.3223 13.6455 42.6056 17.2813 42.6056C20.9171 42.6056 23.9306 45.3223 24.3982 48.8324H10.1645ZM26.3177 48.8324C25.9123 44.9592 23.0631 41.8039 19.3446 40.9371L23.7757 36.5059H30.3798C28.6269 37.9873 27.5109 40.1998 27.5109 42.6692C27.5109 45.1385 28.6269 47.3511 30.3798 48.8324H26.3177ZM50.8933 26.4889V32.4173C49.6412 32.0139 48.7329 30.8375 48.7329 29.4531C48.7329 28.0688 49.6412 26.8924 50.8933 26.4889ZM55.9128 52.8989C54.5284 52.8989 53.3528 51.9904 52.9492 50.7386H58.8764C58.4728 51.9904 57.2972 52.8989 55.9128 52.8989ZM48.796 48.8324C49.2636 45.3223 52.277 42.6056 55.9128 42.6056C59.5487 42.6056 62.5621 45.3223 63.0296 48.8324H48.796Z" fill="#DF2339"/>
<path d="M4.07031 33.582H16.2697V35.4882H4.07031V33.582Z" fill="#DF2339"/>
<path d="M2.03125 29.5156H14.2307V31.4218H2.03125V29.5156Z" fill="#DF2339"/>
<path d="M0 25.4492H12.1994V27.3554H0V25.4492Z" fill="#DF2339"/>
<path d="M13.2188 45.7812H15.252V47.6874H13.2188V45.7812Z" fill="#DF2339"/>
<path d="M15.25 43.7461H17.2832V45.6523H15.25V43.7461Z" fill="#DF2339"/>
<path d="M51.8438 45.7812H53.877V47.6874H51.8438V45.7812Z" fill="#DF2339"/>
<path d="M53.8828 43.7461H55.916V45.6523H53.8828V43.7461Z" fill="#DF2339"/>
</svg>
